# File created by Blade
# Date/Time:  Tue Jan 27 20:12:02 2015
# Frame Rate: 120.000 fps
#------------------------------------------------------
:FULLY-SPECIFIED
:DEGREES
3250
root 9.056370 32.655566 -4.934332 10.340122 -22.007592 -7.366713
Spine 1.988996 17.230189 -2.381606
Head 15.399040 -6.188338 2.132311
LeftShoulder -17.877894 2.793660 28.794576
LeftArm -28.811901 -46.190237 -56.377378
LeftForeArm -16.135682 0.000000 92.490742
LeftHand 19.490998 -0.000000 3.543447
LeftHandThumb1 -26.253704 0.000000 33.147579
RightShoulder -17.382569 -22.040635 -22.978445
RightArm 8.242222 -38.926397 92.623443
RightForeArm -23.765081 -0.000000 103.167084
RightHand 19.066403 -0.000000 -0.083094
RightHandThumb1 -24.326973 -0.000000 -32.862282
LeftUpLeg -3.510395 10.943419 -4.592171
LeftLeg -4.357513 -0.000000 0.000000
LeftFoot -17.968444 23.076012 -18.509961
LeftToeBase 24.954187 -0.000000 -0.000000
RightUpLeg 4.870381 -30.986143 -23.212787
RightLeg 93.710723 -0.000000 -0.000000
RightFoot 25.814292 -27.049608 23.716073
RightToeBase 16.886046 -0.000000 -0.000000
3251
root 9.053344 32.651595 -4.937342 10.299645 -22.192047 -7.326696
Spine 1.996136 17.410510 -2.461115
Head 15.432323 -6.160571 2.118366
LeftShoulder -17.895505 2.849668 28.808407
LeftArm -28.779488 -46.286458 -56.356593
LeftForeArm -16.247619 -0.000000 92.390007
LeftHand 19.579421 -0.000000 3.517586
LeftHandThumb1 -26.253704 0.000000 33.147579
RightShoulder -17.347405 -22.058557 -22.995367
RightArm 8.241541 -38.945180 92.620215
RightForeArm -23.801134 -0.000000 103.176189
RightHand 19.039086 -0.000000 -0.088879
RightHandThumb1 -24.326973 -0.000000 -32.862282
LeftUpLeg -3.474397 10.927073 -4.630132
LeftLeg -4.338875 -0.000000 0.000000
LeftFoot -18.066592 23.264408 -18.548408
LeftToeBase 24.773911 -0.000000 -0.000000
RightUpLeg 4.930678 -31.660400 -23.337428
RightLeg 93.515694 -0.000000 -0.000000
RightFoot 25.909722 -26.970009 23.603438
RightToeBase 16.713625 -0.000000 -0.000000
3252
root 9.050210 32.647543 -4.939076 10.244588 -22.360039 -7.283077
Spine 2.005411 17.575654 -2.539652
Head 15.498091 -6.136537 2.120203
LeftShoulder -17.905689 2.878858 28.831644
LeftArm -28.754412 -46.367251 -56.325604
LeftForeArm -16.242116 -0.000000 92.298696
LeftHand 19.532885 -0.000000 3.570672
LeftHandThumb1 -26.253704 0.000000 33.147579
RightShoulder -17.291888 -22.076341 -23.017953
RightArm 8.247368 -38.956912 92.610556
RightForeArm -23.792971 0.000000 103.162278
RightHand 19.082188 -0.000000 -0.065926
RightHandThumb1 -24.326973 -0.000000 -32.862282
LeftUpLeg -3.424038 10.915495 -4.668063
LeftLeg -4.318935 -0.000000 0.000000
LeftFoot -18.135551 23.394804 -18.542504
LeftToeBase 24.812780 -0.000000 -0.000000
RightUpLeg 5.017149 -32.273780 -23.454790
RightLeg 93.320205 -0.000000 -0.000000
RightFoot 25.148088 -27.285649 24.568348
RightToeBase 19.259750 -0.000000 -0.000000
3253
root 9.045954 32.644254 -4.943524 10.214902 -22.532651 -7.254599
Spine 2.013806 17.734792 -2.611690
Head 15.516983 -6.089301 2.131044
LeftShoulder -17.951814 2.880836 28.864029
LeftArm -28.708910 -46.443658 -56.309579
LeftForeArm -16.183608 -0.000000 92.165149
LeftHand 19.596245 0.000000 3.510901
LeftHandThumb1 -26.253704 0.000000 33.147579
RightShoulder -17.267819 -22.069384 -23.027553
RightArm 8.270808 -39.001316 92.569391
RightForeArm -23.762764 -0.000000 103.146135
RightHand 19.061390 -0.000000 -0.028569
RightHandThumb1 -24.326973 -0.000000 -32.862282
LeftUpLeg -3.394901 10.933921 -4.689325
LeftLeg -4.338456 -0.000000 0.000000
LeftFoot -18.132054 23.497767 -18.561209
LeftToeBase 24.833081 -0.000000 -0.000000
RightUpLeg 5.089466 -32.919710 -23.561955
RightLeg 93.130830 -0.000000 -0.000000
RightFoot 25.024626 -27.301745 24.758840
RightToeBase 19.559999 -0.000000 -0.000000
3254
root 9.041223 32.640935 -4.946960 10.168525 -22.683984 -7.215940
Spine 2.029068 17.874178 -2.691332
Head 15.550691 -6.066935 2.156699
LeftShoulder -17.992982 2.851352 28.926461
LeftArm -28.667136 -46.476542 -56.304911
LeftForeArm -16.169038 -0.000000 92.024796
LeftHand 19.649891 -0.000000 3.559241
LeftHandThumb1 -26.253704 0.000000 33.147579
RightShoulder -17.235296 -22.079052 -23.029789
RightArm 8.309276 -39.033709 92.517955
RightForeArm -23.744826 -0.000000 103.119529
RightHand 19.078047 -0.000000 -0.014707
RightHandThumb1 -24.326973 -0.000000 -32.862282
LeftUpLeg -3.361531 10.913057 -4.715491
LeftLeg -4.316100 -0.000000 0.000000
LeftFoot -18.204197 23.615877 -18.630622
LeftToeBase 24.790125 -0.000000 -0.000000
RightUpLeg 5.218369 -33.593948 -23.704724
RightLeg 92.922237 -0.000000 -0.000000
RightFoot 25.029990 -27.273963 24.761845
RightToeBase 19.290672 -0.000000 -0.000000
3255
root 9.035225 32.637780 -4.949119 10.120846 -22.823352 -7.176160
Spine 2.039630 18.006511 -2.768739
Head 15.588140 -6.031719 2.182119
LeftShoulder -18.004280 2.852817 29.003005
LeftArm -28.586017 -46.550846 -56.351901
LeftForeArm -16.104709 -0.000000 91.862920
LeftHand 19.672528 -0.000000 3.591104
LeftHandThumb1 -26.253704 0.000000 33.147579
RightShoulder -17.204141 -22.071314 -23.038102
RightArm 8.317749 -39.068250 92.487433
RightForeArm -23.779788 -0.000000 103.086496
RightHand 19.064662 -0.000000 -0.022170
RightHandThumb1 -24.326973 -0.000000 -32.862282
LeftUpLeg -3.316996 10.903639 -4.744719
LeftLeg -4.314523 -0.000000 0.000000
LeftFoot -18.222302 23.763633 -18.621887
LeftToeBase 24.694334 -0.000000 -0.000000
RightUpLeg 5.379511 -34.276943 -23.860353
RightLeg 92.699120 -0.000000 -0.000000
RightFoot 25.063124 -27.221115 24.691345
RightToeBase 19.172876 -0.000000 -0.000000
3256
root 9.030412 32.635438 -4.951818 10.079804 -22.938396 -7.134805
Spine 2.046348 18.101396 -2.835227
Head 15.624752 -6.009515 2.184610
LeftShoulder -17.994351 2.794620 29.030104
LeftArm -28.612105 -46.554919 -56.258234
LeftForeArm -16.117792 -0.000000 91.752892
LeftHand 19.671764 -0.000000 3.687914
LeftHandThumb1 -26.253704 0.000000 33.147579
RightShoulder -17.173937 -22.049404 -23.055889
RightArm 8.319396 -39.111200 92.461507
RightForeArm -23.761055 -0.000000 103.044741
RightHand 19.048817 -0.000000 0.044804
RightHandThumb1 -24.326973 -0.000000 -32.862282
LeftUpLeg -3.285379 10.906479 -4.782461
LeftLeg -4.319200 -0.000000 0.000000
LeftFoot -18.249862 23.874847 -18.638830
LeftToeBase 24.663062 -0.000000 -0.000000
RightUpLeg 5.592997 -35.034650 -24.101551
RightLeg 92.489438 -0.000000 -0.000000
RightFoot 25.104002 -27.087957 24.530772
RightToeBase 19.272694 -0.000000 -0.000000
3257
root 9.024421 32.633672 -4.954124 10.037742 -23.025243 -7.108307
Spine 2.071266 18.153232 -2.868823
Head 15.636492 -5.955934 2.159342
LeftShoulder -17.980903 2.761047 29.042681
LeftArm -28.626030 -46.573735 -56.181022
LeftForeArm -16.137901 -0.000000 91.636199
LeftHand 19.702631 -0.000000 3.682239
LeftHandThumb1 -26.253704 0.000000 33.147579
RightShoulder -17.135784 -22.053546 -23.075887
RightArm 8.370591 -39.160492 92.395380
RightForeArm -23.756736 0.000000 102.996581
RightHand 19.046029 -0.000000 0.050047
RightHandThumb1 -24.326973 -0.000000 -32.862282
LeftUpLeg -3.244649 10.947174 -4.802718
LeftLeg -4.322332 -0.000000 0.000000
LeftFoot -18.266137 23.926325 -18.645944
LeftToeBase 24.654745 -0.000000 -0.000000
RightUpLeg 5.853832 -35.791285 -24.351564
RightLeg 92.266551 -0.000000 -0.000000
RightFoot 25.079678 -27.034568 24.609096
RightToeBase 19.399635 -0.000000 -0.000000
3258
root 9.019511 32.633312 -4.959760 10.021227 -23.103937 -7.087871
Spine 2.076792 18.216758 -2.905852
Head 15.636382 -5.915944 2.143374
LeftShoulder -17.950907 2.801812 29.066488
LeftArm -28.523753 -46.585651 -56.234408
LeftForeArm -16.135993 -0.000000 91.522324
LeftHand 19.769994 0.000000 3.657196
LeftHandThumb1 -26.253704 0.000000 33.147579
RightShoulder -17.135896 -22.066482 -23.070113
RightArm 8.437067 -39.204073 92.326324
RightForeArm -23.736831 -0.000000 102.940820
RightHand 19.040086 -0.000000 0.087573
RightHandThumb1 -24.326973 -0.000000 -32.862282
LeftUpLeg -3.231377 11.001705 -4.823271
LeftLeg -4.338175 -0.000000 0.000000
LeftFoot -18.261652 23.980337 -18.640712
LeftToeBase 24.671671 -0.000000 -0.000000
RightUpLeg 6.031803 -36.514049 -24.489883
RightLeg 92.054139 -0.000000 -0.000000
RightFoot 25.135848 -26.953400 24.599190
RightToeBase 19.408864 -0.000000 -0.000000
3259
root 9.012889 32.633106 -4.966301 10.008314 -23.162050 -7.077276
Spine 2.095961 18.243372 -2.938612
Head 15.591108 -5.765680 2.139005
LeftShoulder -17.938039 2.729725 29.070087
LeftArm -28.574793 -46.479584 -56.107501
LeftForeArm -16.169393 -0.000000 91.482720
LeftHand 19.751123 -0.000000 3.698517
LeftHandThumb1 -26.253704 0.000000 33.147579
RightShoulder -17.124544 -22.021060 -23.075595
RightArm 8.448077 -39.255274 92.288243
RightForeArm -23.740545 -0.000000 102.897218
RightHand 18.988732 -0.000000 0.086666
RightHandThumb1 -24.326973 -0.000000 -32.862282
LeftUpLeg -3.218920 11.072747 -4.829788
LeftLeg -4.351394 -0.000000 0.000000
LeftFoot -18.252699 23.982062 -18.652832
LeftToeBase 24.544490 -0.000000 -0.000000
RightUpLeg 6.261883 -37.301654 -24.645849
RightLeg 91.825439 -0.000000 -0.000000
RightFoot 25.227740 -26.902257 24.407225
RightToeBase 19.061884 -0.000000 -0.000000
3260
root 9.007396 32.632564 -4.972877 9.990298 -23.196531 -7.053455
Spine 2.117535 18.254286 -2.969447
Head 15.543757 -5.686654 2.123221
LeftShoulder -17.908818 2.753025 29.060357
LeftArm -28.490257 -46.419404 -56.123346
LeftForeArm -16.172022 -0.000000 91.453282
LeftHand 19.743203 -0.000000 3.763015
LeftHandThumb1 -26.253704 0.000000 33.147579
RightShoulder -17.101180 -22.000797 -23.092028
RightArm 8.449734 -39.274576 92.281072
RightForeArm -23.741877 -0.000000 102.864514
RightHand 18.955079 -0.000000 0.113384
RightHandThumb1 -24.326973 -0.000000 -32.862282
LeftUpLeg -3.209559 11.095524 -4.844623
LeftLeg -4.360382 -0.000000 0.000000
LeftFoot -18.277877 23.986737 -18.706122
LeftToeBase 24.584421 -0.000000 -0.000000
RightUpLeg 6.508101 -38.099604 -24.844285
RightLeg 91.611883 -0.000000 -0.000000
RightFoot 25.347328 -26.885379 24.361606
RightToeBase 18.994465 -0.000000 -0.000000
